<svg width="24" height="24" viewBox="0 0 24 24" fill="none" xmlns="http://www.w3.org/2000/svg">
<g clip-path="url(#clip0_6_758)">
<path d="M12.0001 1.28571C12.1706 1.28571 12.3341 1.35344 12.4547 1.474C12.5753 1.59456 12.643 1.75807 12.643 1.92857V2.57143H16.5001C17.1253 2.57143 17.7248 2.81977 18.1669 3.26182C18.6089 3.70387 18.8573 4.30342 18.8573 4.92857V9.64286C18.8573 10.0586 18.7501 10.4486 18.5607 10.788L18.4193 10.362C18.3228 10.0881 18.1467 9.84937 17.9136 9.67628C17.6757 9.50724 17.3911 9.41642 17.0993 9.41642C16.8075 9.41642 16.5229 9.50724 16.285 9.67628C16.0563 9.84455 15.8831 10.0774 15.7879 10.3449L15.4287 11.6743C15.3921 11.7886 15.345 11.8974 15.2873 12.0009H7.50014C7.19052 12.0009 6.88394 11.9399 6.5979 11.8213C6.31186 11.7028 6.05198 11.5291 5.83308 11.3102C5.61419 11.0912 5.44058 10.8312 5.32218 10.5452C5.20377 10.2591 5.14288 9.95247 5.143 9.64286V4.92857C5.143 4.30342 5.39134 3.70387 5.83339 3.26182C6.27544 2.81977 6.87499 2.57143 7.50014 2.57143H11.3573V1.92857C11.3573 1.75807 11.425 1.59456 11.5456 1.474C11.6661 1.35344 11.8296 1.28571 12.0001 1.28571ZM12.2573 13.7914C12.2744 13.7646 12.2933 13.7389 12.3139 13.7143H5.78585C5.1607 13.7143 4.56115 13.9626 4.1191 14.4047C3.67705 14.8467 3.42871 15.4463 3.42871 16.0714V16.7143C3.42871 18.4089 4.25243 19.836 5.75757 20.8114C7.23785 21.7689 9.35757 22.2857 12.0001 22.2857C14.6427 22.2857 16.7624 21.7697 18.2427 20.8114C18.321 20.76 18.3976 20.7077 18.4724 20.6546C18.372 20.5816 18.2846 20.4924 18.2136 20.3906C18.0759 20.1918 18.0015 19.9561 18.0001 19.7143C18.0019 19.604 18.019 19.4954 18.0516 19.3886L17.9401 19.4829C17.7057 19.6443 17.4277 19.7307 17.143 19.7307C16.8583 19.7307 16.5803 19.6443 16.3459 19.4829C16.1127 19.3098 15.9366 19.071 15.8401 18.7971L15.4116 17.4857C15.3486 17.2866 15.2499 17.1007 15.1201 16.9371C15.0729 16.8737 15.0214 16.8135 14.9659 16.7571C14.7643 16.5581 14.5214 16.406 14.2544 16.3114L12.9173 15.8829C12.6488 15.7892 12.4175 15.612 12.2573 15.3771C12.0906 15.1464 12.0009 14.8689 12.0009 14.5843C12.0009 14.2996 12.0906 14.0222 12.2573 13.7914ZM9.42871 8.57143C9.7697 8.57143 10.0967 8.43597 10.3378 8.19485C10.579 7.95373 10.7144 7.62671 10.7144 7.28571C10.7144 6.94472 10.579 6.61769 10.3378 6.37658C10.0967 6.13546 9.7697 6 9.42871 6C9.08772 6 8.76069 6.13546 8.51957 6.37658C8.27846 6.61769 8.143 6.94472 8.143 7.28571C8.143 7.62671 8.27846 7.95373 8.51957 8.19485C8.76069 8.43597 9.08772 8.57143 9.42871 8.57143ZM15.8573 7.28571C15.8573 6.94472 15.7218 6.61769 15.4807 6.37658C15.2396 6.13546 14.9126 6 14.5716 6C14.2306 6 13.9035 6.13546 13.6624 6.37658C13.4213 6.61769 13.2859 6.94472 13.2859 7.28571C13.2859 7.62671 13.4213 7.95373 13.6624 8.19485C13.9035 8.43597 14.2306 8.57143 14.5716 8.57143C14.9126 8.57143 15.2396 8.43597 15.4807 8.19485C15.7218 7.95373 15.8573 7.62671 15.8573 7.28571ZM15.5753 16.1383C15.8724 16.437 16.0958 16.8009 16.2276 17.2011L16.6544 18.5117C16.6903 18.6126 16.7565 18.6999 16.844 18.7616C16.9315 18.8233 17.0359 18.8565 17.143 18.8565C17.2501 18.8565 17.3545 18.8233 17.442 18.7616C17.5295 18.6999 17.5957 18.6126 17.6316 18.5117L18.0584 17.2003C18.191 16.8015 18.4149 16.4392 18.7122 16.1422C19.0095 15.8452 19.3721 15.6216 19.771 15.4894L21.0824 15.0634C21.1837 15.0279 21.2714 14.9619 21.3335 14.8743C21.3956 14.7868 21.4289 14.6822 21.4289 14.5749C21.4289 14.4676 21.3956 14.3629 21.3335 14.2754C21.2714 14.1879 21.1837 14.1218 21.0824 14.0863L21.0567 14.0794L19.7444 13.6534C19.3455 13.5212 18.983 13.2977 18.6857 13.0007C18.3883 12.7037 18.1645 12.3414 18.0319 11.9426L17.6059 10.6311C17.5704 10.5299 17.5043 10.4422 17.4168 10.3801C17.3292 10.318 17.2246 10.2847 17.1173 10.2847C17.01 10.2847 16.9053 10.318 16.8178 10.3801C16.7303 10.4422 16.6642 10.5299 16.6287 10.6311L16.2019 11.9426L16.1907 11.9751C16.0576 12.364 15.8374 12.7173 15.547 13.0081C15.2566 13.299 14.9036 13.5197 14.515 13.6534L13.2036 14.0794C13.1023 14.1149 13.0146 14.181 12.9525 14.2685C12.8904 14.3561 12.8571 14.4607 12.8571 14.568C12.8571 14.6753 12.8904 14.7799 12.9525 14.8675C13.0146 14.955 13.1023 15.0211 13.2036 15.0566L14.515 15.4826C14.9153 15.6154 15.2779 15.8409 15.5753 16.1383ZM22.9896 19.164L23.7764 19.4194L23.7927 19.4229C23.8536 19.444 23.9064 19.4836 23.9438 19.5361C23.9812 19.5886 24.0013 19.6515 24.0013 19.716C24.0013 19.7805 23.9812 19.8434 23.9438 19.8959C23.9064 19.9484 23.8536 19.988 23.7927 20.0091L23.005 20.2646C22.7661 20.3446 22.549 20.479 22.3708 20.6572C22.1926 20.8354 22.0582 21.0525 21.9781 21.2914L21.7219 22.0783C21.7003 22.1388 21.6606 22.1912 21.6081 22.2282C21.5556 22.2653 21.4929 22.2851 21.4287 22.2851C21.3645 22.2851 21.3018 22.2653 21.2493 22.2282C21.1968 22.1912 21.1571 22.1388 21.1356 22.0783L20.8793 21.2914C20.8003 21.0515 20.6663 20.8334 20.488 20.6546C20.3097 20.4757 20.0921 20.3409 19.8524 20.2611L19.0647 20.0057C19.0038 19.9846 18.951 19.945 18.9136 19.8925C18.8762 19.8399 18.8561 19.777 18.8561 19.7126C18.8561 19.6481 18.8762 19.5852 18.9136 19.5327C18.951 19.4802 19.0038 19.4406 19.0647 19.4194L19.8524 19.164C20.0885 19.0819 20.3025 18.9466 20.4779 18.7686C20.6533 18.5905 20.7854 18.3744 20.8639 18.1371L21.1201 17.3503C21.1417 17.2898 21.1814 17.2374 21.2339 17.2004C21.2864 17.1633 21.349 17.1434 21.4133 17.1434C21.4775 17.1434 21.5402 17.1633 21.5927 17.2004C21.6452 17.2374 21.6849 17.2898 21.7064 17.3503L21.9619 18.1371C22.0414 18.3765 22.1757 18.594 22.3541 18.7722C22.5326 18.9505 22.7502 19.0847 22.9896 19.164Z" fill="white"/>
</g>
<defs>
<clipPath id="clip0_6_758">
<rect width="24" height="24" fill="white"/>
</clipPath>
</defs>
</svg>
